<svg width="722" height="618" viewBox="0 0 722 618" fill="none" xmlns="http://www.w3.org/2000/svg">
<path opacity="0.7" d="M332.739 342.526C331.077 341.292 328.556 340.737 326.661 341.202C320.225 342.759 305.601 348.037 297.932 364.444C288.939 383.713 302.955 396.953 305.887 399.422C302.294 404.522 299.416 407.867 298.218 409.191C293.981 406.883 289.494 404.396 284.792 401.748C277.194 397.49 269.131 392.731 260.693 387.65C258.601 386.361 256.492 385.055 254.346 383.749C253.274 383.087 252.201 382.425 251.11 381.763C250.038 381.083 248.965 380.403 247.892 379.723C245.729 378.346 243.548 376.968 241.349 375.573C239.24 374.195 237.094 372.799 234.949 371.386C237.041 369.346 241.081 365.285 246.015 359.81C250.556 360.024 274.691 360.275 284.363 342.884C292.551 328.159 284.363 317.996 280.072 314.06C278.821 312.915 276.657 312.253 274.87 312.504C268.791 313.309 254.632 316.583 244.567 329.662C232.679 345.085 242.869 357.233 244.925 359.416C240.116 364.748 236.147 368.738 234.055 370.795C229.854 368.076 225.742 365.231 221.523 362.386C219.271 360.883 217.125 359.327 214.908 357.77C212.709 356.214 210.475 354.657 208.276 353.082C201.107 347.858 193.92 342.526 186.984 337.087C188.074 336.3 189.88 334.958 192.222 333.151C194.796 331.165 198.014 328.624 201.607 325.672C205.398 326.084 228.227 327.873 239.848 312.879C249.573 300.319 243.387 290.908 239.955 287.187C238.954 286.095 237.041 285.415 235.342 285.523C229.568 285.898 215.927 287.992 204.682 298.977C191.703 311.663 198.836 322.738 200.66 325.117C193.92 330.682 188.503 334.725 186.161 336.443C184.928 335.459 183.676 334.493 182.461 333.509C170.858 324.259 159.881 314.776 149.888 305.365C151.515 304.452 156.324 301.625 162.295 297.027C163.618 296.007 165.03 294.862 166.442 293.664C170.071 293.896 188.646 294.361 196.709 281.282C203.592 270.154 197.603 262.299 194.421 259.222C193.491 258.327 191.846 257.808 190.452 257.951C185.714 258.488 174.63 260.778 166.335 270.619C156.806 281.926 163.653 291.159 165.423 293.18C157.825 299.568 151.3 303.468 149.155 304.685C144.971 300.731 140.931 296.777 137.123 292.876C134.477 290.175 131.939 287.491 129.489 284.843C129.525 284.807 129.543 284.771 129.543 284.735C129.543 284.539 129.293 284.36 128.971 284.306C128.113 283.376 127.273 282.445 126.45 281.533C127.219 280.155 130.58 274.09 134.62 266.486C138.41 266.307 155.644 264.714 159.72 250.58C163.242 238.396 155.519 230.899 151.711 228.072C150.603 227.249 148.904 226.873 147.635 227.177C143.309 228.215 133.458 231.74 128.274 242.743C122.213 255.59 131.456 264.446 133.494 266.2C129.847 273.034 126.772 278.616 125.664 280.638C117.69 271.692 110.915 263.14 105.408 255.429C104.407 254.033 103.406 252.655 102.441 251.331C101.475 249.989 100.689 248.665 99.8484 247.377C99.616 247.019 99.4015 246.697 99.187 246.357C100.867 245.159 106.821 239.827 100.277 228.108C94.4852 217.766 85.8145 212.613 82.0781 210.753C80.9697 210.216 79.611 210.126 78.7887 210.574C75.9998 212.077 70.5471 216.55 75.1059 227.499C80.4691 240.382 95.3433 245.57 98.2573 246.465C98.4718 246.805 98.6685 247.127 98.883 247.467C99.7054 248.755 100.474 250.079 101.404 251.439C102.351 252.781 103.317 254.158 104.3 255.572C110.271 264.196 117.78 273.839 126.772 283.966C122.106 283.215 110.593 281.354 97.3634 279.332C95.5399 277.561 86.1363 269.402 63.7179 266.217C44.3922 263.462 34.4344 266.253 30.8411 267.702C29.7863 268.132 29.5717 269.062 30.3226 269.939C32.9327 272.945 40.8882 279.869 61.2687 283.895C84.8849 288.582 95.2718 281.622 97.3098 279.994C111.29 282.141 123.375 284.091 127.487 284.753C130.008 287.58 132.654 290.443 135.407 293.324C140.019 298.172 144.971 303.093 150.156 308.013C147.17 308.496 138.893 309.784 127.469 311.001C125.02 309.516 111.862 302.323 89.0861 303.576C69.6711 304.631 61.948 309.838 59.4094 312.217C58.6585 312.915 58.9624 313.989 60.1424 314.812C64.2006 317.603 75.3204 323.579 96.4159 323.722C120.872 323.901 126.718 313.971 127.72 311.752C139.465 310.5 147.939 309.176 150.835 308.693C159.935 317.299 169.821 325.958 180.208 334.421C182.461 336.282 184.767 338.125 187.091 339.968C184.391 340.576 176.203 342.401 164.833 344.62C161.615 343.081 145.472 336.228 121.498 340.129C100.885 343.475 94.0382 350.399 91.9644 353.458C91.3566 354.353 91.9644 355.587 93.484 356.41C98.6149 359.219 112.255 364.998 135.014 362.887C161.866 360.382 165.03 347.733 165.405 345.335C177.097 343.063 185.428 341.202 187.913 340.63C193.795 345.264 199.82 349.826 205.844 354.299C208.026 355.909 210.26 357.484 212.441 359.058C214.64 360.633 216.786 362.225 219.02 363.746C223.454 366.805 227.798 369.865 232.232 372.781C232.786 373.157 233.322 373.515 233.859 373.873C231.999 374.714 226.743 377.004 218.359 380.063C214.497 378.632 194.546 372.084 168.963 379.527C147.099 385.896 141.503 395.021 140.073 398.939C139.662 400.102 140.717 401.498 142.612 402.321C149.119 405.13 165.906 410.551 190.506 405.434C219.914 399.297 219.378 383.373 219.092 380.725C227.619 377.612 232.929 375.304 234.735 374.481C236.075 375.376 237.434 376.27 238.757 377.165C240.956 378.578 243.119 379.992 245.282 381.387C246.355 382.085 247.428 382.783 248.5 383.463C249.573 384.143 250.663 384.823 251.718 385.485C253.846 386.827 255.973 388.151 258.047 389.457C266.467 394.627 274.494 399.476 282.092 403.824C287.205 406.776 292.068 409.531 296.645 412.054C294.875 412.931 289.458 415.561 281.055 419.014C277.855 417.851 255.079 410.247 226.6 419.443C203.056 427.047 197.478 437.353 196.155 441.737C195.762 443.043 196.995 444.581 199.14 445.44C206.434 448.428 225.134 454.064 251.736 447.766C282.968 440.377 282.056 423.147 281.556 419.73C290.352 416.116 295.965 413.378 297.61 412.555C306.155 417.278 313.628 421.197 319.546 424.238C324.176 426.618 327.877 428.461 330.415 429.695C332.936 430.93 334.366 431.592 334.366 431.592L336.887 428.908C336.887 428.908 335.564 428.318 333.061 427.101C330.558 425.902 326.893 424.131 322.263 421.805C316.113 418.71 308.265 414.666 299.237 409.764C300.417 408.458 303.331 405.076 307.014 399.87C311.179 399.727 338.621 397.991 344.86 376.073C350.045 357.895 338.478 346.749 332.793 342.526H332.739Z" fill="#0B0244"/>
<g opacity="0.7">
<path d="M292.086 405.631C292.086 405.631 279.125 441.236 231.141 445.458C194.385 448.697 177.813 434.097 172.092 427.083C170.411 425.044 170.393 422.109 172.038 420.052C177.616 413.038 193.598 397.311 227.995 391.031C272.903 382.837 292.086 405.631 292.086 405.631Z" fill="url(#paint0_linear_758_663)"/>
</g>
<g opacity="0.7">
<path d="M338.889 380.242C338.889 380.242 375.771 388.813 405.501 350.882C428.277 321.825 425.095 299.962 422.36 291.338C421.555 288.815 419.124 287.205 416.496 287.455C407.575 288.314 385.693 293.109 361.647 318.533C330.272 351.723 338.907 380.242 338.907 380.242H338.889Z" fill="url(#paint1_linear_758_663)"/>
</g>
<g opacity="0.7">
<path d="M304.654 296.222C304.654 296.222 335.546 307.959 365.688 278.652C388.786 256.198 388.589 236.928 387.248 229.145C386.855 226.873 384.942 225.191 382.636 225.102C374.823 224.798 355.337 226.372 331.559 245.534C300.542 270.547 304.654 296.222 304.654 296.222Z" fill="url(#paint2_linear_758_663)"/>
</g>
<g opacity="0.7">
<path d="M284.667 226.712C284.667 226.712 311.662 240.024 341.518 216.031C364.383 197.656 365.867 180.158 365.313 172.983C365.152 170.89 363.561 169.19 361.469 168.921C354.407 167.973 336.601 167.741 313.414 183.056C283.129 203.059 284.667 226.712 284.667 226.712Z" fill="url(#paint3_linear_758_663)"/>
</g>
<g opacity="0.7">
<path d="M273.118 163.411C273.118 163.411 296.627 173.108 320.44 151.226C338.693 134.462 338.961 119.629 338.085 113.618C337.835 111.864 336.387 110.522 334.617 110.397C328.61 109.986 313.593 110.791 294.893 125.015C270.49 143.569 273.1 163.411 273.1 163.411H273.118Z" fill="url(#paint4_linear_758_663)"/>
</g>
<g opacity="0.7">
<path d="M260.926 109.163C260.926 109.163 285.668 114.977 305.691 89.5531C321.03 70.0867 318.92 55.3975 317.097 49.6005C316.561 47.9008 314.934 46.8094 313.164 46.9883C307.175 47.543 292.479 50.7456 276.3 67.7787C255.187 90.0004 260.926 109.18 260.926 109.18V109.163Z" fill="url(#paint5_linear_758_663)"/>
</g>
<g opacity="0.7">
<path d="M255.24 323.364C255.24 323.364 242.458 355.194 198.926 357.591C165.585 359.434 151.032 345.729 146.044 339.216C144.596 337.32 144.65 334.672 146.205 332.847C151.461 326.674 166.371 312.915 197.693 308.245C238.561 302.162 255.24 323.364 255.24 323.364Z" fill="url(#paint6_linear_758_663)"/>
</g>
<g opacity="0.7">
<path d="M225.456 249.292C225.456 249.292 210.6 274.573 173.504 271.03C145.079 268.329 134.531 254.892 131.152 248.755C130.169 246.966 130.562 244.729 132.1 243.387C137.338 238.843 151.693 229.11 178.742 229.163C214.068 229.235 225.456 249.274 225.456 249.274V249.292Z" fill="url(#paint7_linear_758_663)"/>
</g>
<g opacity="0.7">
<path d="M212.745 182.627C212.745 182.627 196.513 202.719 164.655 194.811C140.252 188.746 132.797 175.667 130.652 169.888C130.026 168.188 130.652 166.309 132.171 165.343C137.32 162.051 151.086 155.449 174.666 159.027C205.434 163.679 212.745 182.627 212.745 182.627Z" fill="url(#paint8_linear_758_663)"/>
</g>
<g opacity="0.7">
<path d="M206.721 121.257C206.721 121.257 186.537 134.497 160.436 118.341C140.431 105.96 137.534 92.1832 137.284 86.422C137.213 84.7402 138.303 83.2372 139.948 82.8078C145.472 81.3586 159.613 79.4263 179.582 89.3384C205.63 102.292 206.738 121.257 206.738 121.257H206.721Z" fill="url(#paint9_linear_758_663)"/>
</g>
<g opacity="0.7">
<path d="M238.382 66.1505C238.382 66.1505 222.239 53.1968 228.478 27.5935C233.251 7.98404 243.709 1.95447 248.34 0.218963C249.698 -0.282009 251.2 0.218963 251.987 1.43561C254.633 5.56863 259.96 16.59 257.171 35.5196C253.524 60.2283 238.364 66.1505 238.364 66.1505H238.382Z" fill="url(#paint10_linear_758_663)"/>
</g>
<path opacity="0.7" d="M201.769 421.769C201.733 421.412 202.001 421.089 202.376 421.054C261.14 416.259 308.819 400.46 316.328 397.866C313.342 392.373 310.196 386.433 306.978 380.063C302.151 370.688 297.27 360.347 292.229 349.379C291.013 346.623 289.78 343.814 288.528 340.97C287.903 339.556 287.277 338.125 286.651 336.694C286.043 335.244 285.435 333.795 284.828 332.328C283.612 329.394 282.378 326.441 281.127 323.454C280.394 321.611 279.661 319.714 278.928 317.853C271.884 320 231.767 331.594 173.325 335.888C172.968 335.924 172.646 335.638 172.61 335.28C172.592 334.922 172.861 334.6 173.218 334.564C231.249 330.306 271.169 318.82 278.427 316.619C278.124 315.849 277.838 315.098 277.534 314.347C275.066 308.228 272.85 301.912 270.49 295.56C269.292 292.393 268.255 289.137 267.147 285.898C266.056 282.642 264.912 279.404 263.857 276.112C260.979 266.951 258.154 257.665 255.58 248.272C247.857 248.88 199.069 252.387 152.301 249.489C151.944 249.471 151.658 249.149 151.676 248.791C151.693 248.433 152.015 248.147 152.373 248.165C198.551 251.027 246.695 247.628 255.205 246.966C254.203 243.244 253.22 239.523 252.308 235.783C248.018 218.75 244.496 201.503 241.832 184.577C233.787 184.577 193.366 184.058 153.338 174.665C152.981 174.575 152.766 174.235 152.856 173.877C152.945 173.52 153.302 173.305 153.642 173.394C193.259 182.698 233.251 183.271 241.653 183.271C240.152 173.573 238.936 163.983 238.024 154.572C237.47 148.972 237.041 143.461 236.701 138.022C227.566 133.102 179.475 107.284 156.592 97.3182C156.252 97.175 156.109 96.7814 156.252 96.4415C156.395 96.1015 156.789 95.9584 157.128 96.1015C179.511 105.853 225.921 130.704 236.63 136.466C235.486 117.017 235.629 98.7853 236.63 82.6826C236.773 80.0525 236.934 77.4761 237.077 74.9712C237.22 72.4484 237.559 70.0152 237.792 67.6355C238.292 62.8584 238.775 58.3318 239.204 54.0914C239.848 49.8689 240.456 45.9148 241.028 42.247C241.635 38.597 242.047 35.2155 242.654 32.2096C245.175 20.1863 246.605 13.3337 246.605 13.3337L247.052 13.4411C247.052 13.4411 245.712 20.3115 243.37 32.3528C242.797 35.3586 242.422 38.7402 241.886 42.3901C241.367 46.04 240.813 49.9941 240.223 54.2166C239.83 58.457 239.419 62.9836 238.99 67.7429C238.793 70.1225 238.489 72.5558 238.382 75.0786C238.274 77.5834 238.167 80.1598 238.042 82.7721C237.345 97.2287 237.345 113.421 238.382 130.615C245.747 123.44 283.29 86.7441 303.778 64.576C304.028 64.3076 304.439 64.2898 304.707 64.5402C304.976 64.7907 304.994 65.2022 304.743 65.4706C283.308 88.6764 243.262 127.716 238.489 132.35C238.596 134.122 238.721 135.893 238.864 137.7C239.186 137.879 239.294 138.273 239.115 138.595C239.079 138.666 239.007 138.72 238.936 138.774C239.329 143.891 239.83 149.097 240.42 154.357C241.26 161.944 242.315 169.673 243.548 177.456C250.646 174.629 286.955 159.117 322.013 126.231C322.281 125.981 322.692 125.999 322.943 126.267C323.193 126.536 323.175 126.947 322.907 127.198C302.294 146.521 281.252 159.886 265.895 168.224C254.686 174.307 246.516 177.706 243.763 178.798C246.748 197.334 250.771 216.263 255.759 234.942C256.277 236.928 256.831 238.897 257.368 240.883C267.326 235.712 307.604 214.277 344.396 187.511C344.682 187.296 345.111 187.368 345.325 187.654C345.54 187.94 345.468 188.37 345.182 188.585C315.756 209.983 284.113 227.982 267.469 237.018C263.071 239.398 259.728 241.151 257.743 242.189C260.818 253.228 264.268 264.142 267.79 274.859C268.899 278.116 270.061 281.336 271.187 284.539C272.349 287.741 273.404 290.962 274.637 294.093C276.926 300.033 279.107 305.919 281.467 311.645C292.944 304.041 331.971 277.436 367.1 244.676C367.368 244.425 367.779 244.443 368.03 244.711C368.28 244.98 368.262 245.391 367.994 245.642C332.579 278.67 293.194 305.454 281.967 312.897C283.183 315.849 284.381 318.766 285.561 321.682C286.83 324.634 288.099 327.551 289.351 330.449C289.976 331.898 290.602 333.33 291.21 334.761C291.854 336.175 292.497 337.588 293.141 338.984C294.428 341.775 295.679 344.548 296.931 347.268C302.079 358.11 307.067 368.291 311.984 377.523C314.987 383.266 317.937 388.669 320.744 393.697C328.145 388.312 365.974 359.738 404.339 310.697C404.572 310.41 404.983 310.357 405.269 310.589C405.555 310.822 405.608 311.233 405.376 311.52C366.725 360.919 328.592 389.653 321.387 394.878C327.394 405.559 332.793 414.505 337.102 421.394C340.337 426.546 342.965 430.554 344.789 433.238C346.595 435.94 347.578 437.317 347.578 437.317L342.179 441.128C342.179 441.128 341.142 439.643 339.336 436.87C337.513 434.097 334.921 430 331.703 424.739C327.626 418.03 322.549 409.388 316.936 399.118C310.107 401.48 261.944 417.583 202.448 422.449C202.09 422.485 201.769 422.217 201.733 421.841L201.769 421.769Z" fill="url(#paint11_linear_758_663)"/>
<path style="mix-blend-mode:lighten" opacity="0.5" d="M345.852 617.484C476.766 617.484 582.892 556.887 582.892 482.138C582.892 407.388 476.766 346.791 345.852 346.791C214.939 346.791 108.812 407.388 108.812 482.138C108.812 556.887 214.939 617.484 345.852 617.484Z" fill="url(#paint12_radial_758_663)"/>
<path opacity="0.7" d="M660.149 428.64C662.258 417.726 656.502 409.889 645.686 405.72C645.435 405.631 645.185 405.541 644.935 405.452C640.644 403.895 635.603 402.893 629.971 402.5C614.561 401.408 602.958 406.186 599.347 414.183C598.167 416.795 596.415 419.264 593.072 421.322C592.053 421.948 590.963 422.431 589.801 422.807C589.711 422.843 589.622 422.861 589.515 422.897C585.921 423.988 581.773 423.988 577.537 423.344C565.362 421.465 554.171 422.718 547.216 427.03C543.444 429.373 539.672 431.896 535.953 434.598C473.811 479.596 413.349 495.341 392.486 503.177C389.572 504.269 389.143 506.38 390.376 508.438C390.466 508.599 390.573 508.742 390.68 508.903C392.343 511.211 396.061 513.394 400.692 513.912C411.222 515.093 429.761 516.739 452.447 516.829C452.537 516.829 452.644 516.829 452.733 516.829C452.93 516.829 453.109 516.829 453.305 516.829C453.341 516.829 453.377 516.829 453.413 516.829C483.518 516.9 520.775 514.27 556.405 504.34C556.87 504.215 557.335 504.072 557.782 503.911H557.818C558.032 503.857 558.265 503.804 558.479 503.732L558.39 503.696C565.988 501.048 570.35 496.2 570.922 490.277C571.172 487.808 572.763 485.303 576.321 482.888C584.473 477.342 597.166 476.053 609.966 475.248C617.529 474.765 623.857 472.797 627.969 469.505C627.987 469.505 628.005 469.469 628.041 469.451C629.685 468.127 631.259 466.821 632.778 465.533C632.903 465.425 633.028 465.336 633.136 465.229C649.762 450.969 658.093 438.731 660.077 428.926C660.077 428.837 660.113 428.765 660.131 428.676L660.149 428.64Z" fill="#0B0244"/>
<path opacity="0.7" d="M679.421 327.461L679.51 327.318C741.492 224.601 727.976 175.881 685.857 184.201C667.192 187.887 652.801 202.576 647.956 220.969C646.365 226.998 644.077 232.939 639.911 238.574C634.584 245.767 627.808 248.54 620.925 248.898C606.23 249.667 592.572 256.681 583.865 268.543C579.145 275.002 574.426 281.819 569.724 289.012C491.528 408.905 417.121 465.962 391.324 490.742C383.368 498.382 389.715 511.73 400.638 510.37C430.351 506.684 512.802 491.261 590.39 429.391C601.278 420.696 607.732 407.742 608.876 393.84C609.323 388.473 611.415 382.532 615.884 376.002C626.11 361.044 641.628 353.351 657.217 346.641C666.424 342.687 674.236 336.014 679.421 327.426V327.461Z" fill="url(#paint13_linear_758_663)"/>
<path opacity="0.7" d="M624.876 309.033L685.463 317.209C685.624 316.923 685.803 316.637 685.964 316.35L625.502 308.192C645.31 281.139 664.922 251.636 684.23 219.824L720.825 229.002C720.861 228.698 720.896 228.394 720.95 228.09L684.73 219.001C691.452 207.926 698.12 196.564 704.753 184.953C704.467 184.845 704.163 184.756 703.859 184.666C684.963 217.695 666.495 247.252 648.6 273.643L636.139 242.761C635.889 242.976 635.656 243.191 635.406 243.387L647.974 274.537C624.304 309.39 601.671 338.733 580.486 363.424L561.268 301.751C561.053 302.073 560.839 302.395 560.606 302.717L579.771 364.229C543.962 405.881 512.319 434.204 486.933 453.295C485.413 454.44 483.929 455.531 482.446 456.623L479.031 406.364C478.745 406.669 478.459 406.973 478.173 407.295L481.57 457.267C431.691 493.534 397.474 501.263 388.41 502.766C388.517 503.052 388.624 503.356 388.749 503.643C395.364 502.533 414.01 498.329 441.56 483.639L463.334 496.45C463.46 496.414 463.567 496.378 463.674 496.343C463.907 496.271 464.139 496.2 464.371 496.128C464.425 496.128 464.461 496.092 464.514 496.092L442.507 483.138C455.611 476.089 470.682 466.678 487.398 454.118C505.079 440.842 522.867 425.348 540.673 407.796L592.142 427.996C592.41 427.781 592.697 427.548 592.965 427.334L541.388 407.098C559.712 388.974 578.019 368.648 596.201 346.248C605.801 334.421 615.365 322.022 624.876 309.033Z" fill="url(#paint14_linear_758_663)"/>
<path opacity="0.7" d="M545.5 216.585L545.536 216.478C575.07 137.736 559.516 105.924 531.538 117.053C519.149 121.991 511.122 133.961 510.138 147.254C509.817 151.602 509.012 156.004 506.849 160.423C504.096 166.059 499.787 168.85 495.085 169.977C485.056 172.392 476.546 178.977 472.077 188.28C469.646 193.326 467.268 198.64 464.962 204.204C426.471 296.866 382.528 345.729 367.922 366.108C363.417 372.388 369.496 380.779 376.861 378.435C396.866 372.084 451.697 350.864 497.213 298.262C503.613 290.872 506.384 281.121 505.401 271.388C505.025 267.631 505.705 263.265 507.939 258.202C513.07 246.59 522.76 239.29 532.646 232.67C538.474 228.752 543.015 223.152 545.482 216.585H545.5Z" fill="url(#paint15_linear_758_663)"/>
<path opacity="0.7" d="M505.562 210.896L548.361 208.749C548.432 208.534 548.522 208.319 548.593 208.087L505.884 210.234C516.056 189.05 525.781 166.202 535.006 141.815L561.393 143.443C561.393 143.229 561.376 143.014 561.358 142.799L535.239 141.189C538.439 132.69 541.585 124.013 544.678 115.156C544.463 115.121 544.249 115.103 544.034 115.067C535.257 140.259 526.318 162.981 517.379 183.468L504.829 163.786C504.686 163.965 504.543 164.144 504.4 164.323L517.057 184.183C505.222 211.236 493.387 234.37 481.964 254.105L460.814 214.08C460.707 214.331 460.6 214.581 460.493 214.832L481.588 254.749C462.245 288.045 444.099 311.627 429.046 328.034C428.152 329.018 427.258 329.966 426.382 330.897L417.586 296.705C417.426 296.956 417.283 297.206 417.122 297.457L425.882 331.451C396.169 362.851 373.59 372.567 367.529 374.767C367.637 374.964 367.762 375.143 367.869 375.322C372.285 373.712 384.602 368.416 401.693 354.746L418.337 360.776C418.337 360.776 418.48 360.704 418.57 360.651C418.713 360.579 418.874 360.49 419.017 360.418C419.052 360.418 419.07 360.382 419.106 360.364L402.283 354.263C410.4 347.715 419.589 339.306 429.493 328.499C439.969 317.084 450.249 304.112 460.26 289.727L498.321 297.027C498.482 296.848 498.643 296.651 498.804 296.473L460.671 289.155C470.969 274.305 480.98 257.951 490.634 240.185C495.729 230.809 500.717 221.023 505.616 210.86L505.562 210.896Z" fill="url(#paint16_linear_758_663)"/>
<path opacity="0.7" d="M268.094 494.267C247.231 486.431 186.769 470.686 124.627 425.688C120.89 422.986 117.136 420.463 113.364 418.119C106.409 413.807 95.236 412.555 83.0435 414.434C78.8065 415.078 74.659 415.096 71.0656 413.986C70.9762 413.951 70.8868 413.933 70.7795 413.897C69.6175 413.521 68.5269 413.038 67.5079 412.412C64.1648 410.372 62.4128 407.903 61.2329 405.273C57.6395 397.275 46.0191 392.498 30.6086 393.59C24.9772 393.983 19.9357 394.985 15.6451 396.542C15.3948 396.631 15.1446 396.721 14.8943 396.81C4.07835 400.979 -1.67822 408.816 0.43133 419.73C0.43133 419.73 0.467084 419.909 0.484962 419.98C2.48725 429.785 10.8003 442.023 27.4264 456.283C27.5516 456.39 27.6767 456.497 27.784 456.587C29.3036 457.875 30.8768 459.181 32.5215 460.505C32.5394 460.505 32.5573 460.541 32.5931 460.559C36.7049 463.851 43.0335 465.819 50.5958 466.302C63.3961 467.107 76.0891 468.413 84.2413 473.942C87.799 476.357 89.3901 478.862 89.6403 481.331C90.2303 487.254 94.5745 492.102 102.173 494.75L102.083 494.786C102.298 494.858 102.53 494.911 102.745 494.983H102.78C103.227 495.108 103.692 495.251 104.157 495.394C139.787 505.324 177.044 507.954 207.15 507.883C207.15 507.883 207.221 507.883 207.257 507.883C207.453 507.883 207.632 507.883 207.829 507.883C207.918 507.883 208.026 507.883 208.115 507.883C230.802 507.776 249.341 506.147 259.87 504.949C264.501 504.43 268.219 502.265 269.882 499.939C269.989 499.778 270.096 499.635 270.186 499.474C271.419 497.416 270.99 495.305 268.076 494.214L268.094 494.267Z" fill="#0B0244"/>
<path opacity="0.7" d="M36.9374 356.178L36.8659 356.07C-13.0482 273.338 -2.16081 234.102 31.7708 240.793C46.8058 243.763 58.3905 255.59 62.2878 270.404C63.575 275.253 65.4164 280.048 68.7773 284.592C73.0679 290.389 78.5206 292.626 84.0805 292.912C95.9155 293.52 106.928 299.174 113.918 308.746C117.726 313.935 121.534 319.428 125.306 325.225C188.289 421.787 248.214 467.734 268.988 487.701C275.388 493.856 270.293 504.609 261.479 503.517C237.559 500.547 171.144 488.13 108.644 438.301C99.8664 431.306 94.6819 420.857 93.7523 409.674C93.3947 405.362 91.7142 400.567 88.1208 395.307C79.8793 383.266 67.4008 377.075 54.8328 371.672C47.4137 368.487 41.1208 363.12 36.9374 356.196V356.178Z" fill="url(#paint17_linear_758_663)"/>
<path opacity="0.7" d="M80.8804 341.327L32.0747 347.912C31.9495 347.679 31.8065 347.447 31.6814 347.214L80.3798 340.648C64.4331 318.855 48.6293 295.095 33.0758 269.474L3.59574 276.863C3.55998 276.613 3.52423 276.38 3.50635 276.13L32.6825 268.812C27.2656 259.902 21.9024 250.741 16.557 241.383C16.7894 241.294 17.0397 241.222 17.2721 241.151C32.4859 267.756 47.3779 291.552 61.7872 312.808L71.8165 287.938C72.0131 288.117 72.2098 288.278 72.4064 288.457L62.2878 313.559C81.3452 341.632 99.5803 365.267 116.636 385.163L132.117 335.495C132.296 335.763 132.475 336.014 132.654 336.282L117.208 385.825C146.062 419.372 171.538 442.184 191.989 457.553C193.205 458.466 194.421 459.36 195.601 460.237L198.354 419.748C198.586 419.998 198.819 420.249 199.033 420.499L196.298 460.756C236.469 489.973 264.036 496.2 271.33 497.398C271.241 497.631 271.151 497.863 271.062 498.096C265.734 497.201 250.717 493.82 228.531 481.993L210.993 492.317C210.904 492.281 210.814 492.263 210.707 492.228C210.528 492.174 210.332 492.12 210.153 492.049C210.117 492.049 210.082 492.031 210.046 492.013L227.78 481.582C217.233 475.91 205.094 468.324 191.632 458.215C177.383 447.516 163.064 435.045 148.726 420.911L107.268 437.174C107.053 436.995 106.821 436.816 106.606 436.637L148.154 420.338C133.405 405.738 118.638 389.367 103.996 371.314C96.273 361.796 88.5678 351.794 80.8983 341.345L80.8804 341.327Z" fill="url(#paint18_linear_758_663)"/>
<path d="M219.932 409.943C208.061 422.073 176.811 438.284 167.122 428.783C157.432 419.282 172.986 387.685 184.856 375.555C196.727 363.424 214.193 361.295 223.883 370.777C233.573 380.278 231.803 397.794 219.932 409.925V409.943Z" fill="url(#paint19_radial_758_663)"/>
<path style="mix-blend-mode:lighten" d="M219.932 409.943C208.061 422.073 176.811 438.284 167.122 428.783C157.432 419.282 172.986 387.685 184.856 375.555C196.727 363.424 214.193 361.295 223.883 370.777C233.573 380.278 231.803 397.794 219.932 409.925V409.943Z" fill="url(#paint20_linear_758_663)"/>
<path d="M221.326 377.022C220.594 377.022 219.843 376.879 219.128 376.574C216.213 375.358 214.855 372.012 216.07 369.114L233.698 326.96C234.913 324.044 238.257 322.684 241.153 323.901C244.067 325.117 245.425 328.463 244.21 331.362L226.582 373.515C225.671 375.698 223.543 377.022 221.326 377.022Z" fill="#42E8E0"/>
<path d="M445.222 361.647L434.649 365.929L471.175 456.27L481.748 451.988L445.222 361.647Z" fill="#42E8E0"/>
<path d="M285.864 311.088C287.795 291.589 273.565 274.215 254.082 272.282C234.598 270.35 217.238 284.59 215.307 304.09C213.376 323.589 227.605 340.963 247.089 342.896C266.573 344.828 283.933 330.587 285.864 311.088Z" fill="url(#paint21_radial_758_663)"/>
<g style="mix-blend-mode:lighten">
<path d="M278.088 329.999C290.436 314.792 288.129 292.447 272.935 280.089C257.74 267.731 235.413 270.04 223.065 285.247C210.717 300.453 213.024 322.799 228.218 335.157C243.413 347.515 265.74 345.205 278.088 329.999Z" fill="url(#paint22_linear_758_663)"/>
</g>
<path d="M427.348 371.994C427.348 440.86 386.372 496.665 335.833 496.665C285.293 496.665 244.317 440.842 244.317 371.994C244.317 303.146 285.293 282.499 335.833 282.499C386.372 282.499 427.348 303.128 427.348 371.994Z" fill="url(#paint23_radial_758_663)"/>
<g style="mix-blend-mode:lighten">
<path d="M427.348 371.994C427.348 440.86 386.372 496.665 335.833 496.665C285.293 496.665 244.317 440.842 244.317 371.994C244.317 303.146 285.293 282.499 335.833 282.499C386.372 282.499 427.348 303.128 427.348 371.994Z" fill="url(#paint24_linear_758_663)"/>
</g>
<path d="M335.832 355.605C370.33 355.605 398.297 339.448 398.297 319.517C398.297 299.587 370.33 283.429 335.832 283.429C301.334 283.429 273.368 299.587 273.368 319.517C273.368 339.448 301.334 355.605 335.832 355.605Z" fill="#393091"/>
<path d="M291.657 303.611C316.042 289.513 355.587 289.513 379.99 303.611C390.073 309.426 395.972 316.744 397.724 324.33C400.209 313.559 394.31 302.27 379.99 294.003C355.605 279.905 316.06 279.905 291.657 294.003C277.337 302.27 271.437 313.559 273.922 324.33C275.674 316.762 281.574 309.444 291.657 303.611Z" fill="#42E8E0"/>
<path d="M263.732 233.762L275.031 214.277C281.681 207.371 286.991 198.21 289.691 188.996L301.132 169.261L284.667 159.814C284.149 159.457 283.594 159.135 283.022 158.866C278.338 156.648 272.117 157.238 265.306 161.192C250.753 169.601 238.954 190.034 238.954 206.852C238.954 215.261 241.904 221.166 246.659 223.921L263.732 233.762Z" fill="url(#paint25_radial_758_663)"/>
<path d="M300.861 212.163C311.149 194.329 311.15 175.054 300.864 169.11C290.577 163.166 273.898 172.805 263.61 190.639C253.322 208.473 253.32 227.749 263.607 233.692C273.893 239.636 290.572 229.997 300.861 212.163Z" fill="#BCBEFF"/>
<path d="M430.289 254.82C442.131 204.609 411.059 154.298 360.888 142.447C310.716 130.596 260.445 161.693 248.604 211.904C236.762 262.115 267.835 312.427 318.006 324.278C368.177 336.129 418.448 305.031 430.289 254.82Z" fill="url(#paint26_radial_758_663)"/>
<g style="mix-blend-mode:lighten">
<path d="M430.289 254.82C442.131 204.609 411.059 154.298 360.888 142.447C310.716 130.596 260.445 161.693 248.604 211.904C236.762 262.115 267.835 312.427 318.006 324.278C368.177 336.129 418.448 305.031 430.289 254.82Z" fill="url(#paint27_linear_758_663)"/>
</g>
<path style="mix-blend-mode:lighten" d="M391.682 296.562L402.98 277.078C409.631 270.172 414.941 261.011 417.64 251.814L429.082 232.08L412.634 222.633C412.116 222.275 411.562 221.953 410.99 221.685C406.306 219.466 400.084 220.056 393.273 224.01C378.721 232.42 366.921 252.852 366.921 269.671C366.921 278.08 369.871 283.984 374.627 286.739L391.7 296.58L391.682 296.562Z" fill="url(#paint28_linear_758_663)"/>
<path d="M391.682 296.562L402.98 277.078C409.631 270.172 414.941 261.011 417.64 251.814L429.082 232.08L412.634 222.633C412.116 222.275 411.562 221.953 410.99 221.685C406.306 219.466 400.084 220.056 393.273 224.01C378.721 232.42 366.921 252.852 366.921 269.671C366.921 278.08 369.871 283.984 374.627 286.739L391.7 296.58L391.682 296.562Z" fill="url(#paint29_radial_758_663)"/>
<path d="M428.799 274.952C439.087 257.118 439.089 237.843 428.802 231.899C418.516 225.955 401.837 235.594 391.548 253.428C381.26 271.262 381.259 290.538 391.545 296.481C401.832 302.425 418.511 292.786 428.799 274.952Z" fill="#BCBEFF"/>
<path d="M385.067 279.636C385.067 262.818 396.866 242.385 411.419 233.976C416.46 231.06 421.162 229.986 425.167 230.505C420.912 229.557 415.763 230.541 410.203 233.762C395.651 242.171 383.852 262.603 383.852 279.422C383.852 290.407 388.893 297.117 396.437 298.119C389.572 296.598 385.049 290.031 385.049 279.636H385.067Z" fill="white"/>
<path d="M423.489 271.884C430.844 259.133 430.846 245.352 423.492 241.103C416.139 236.854 404.215 243.746 396.859 256.497C389.503 269.247 389.501 283.028 396.855 287.277C404.209 291.526 416.133 284.634 423.489 271.884Z" fill="#393091"/>
<path d="M421.001 240.149C422.949 242.457 424.094 245.892 424.094 250.294C424.094 262.317 415.655 276.917 405.269 282.928C401.246 285.254 397.51 285.952 394.453 285.219C397.814 289.191 403.606 289.763 410.203 285.952C420.607 279.94 429.028 265.323 429.028 253.317C429.028 245.946 425.864 241.276 421.019 240.149H421.001Z" fill="#453C9E"/>
<path d="M299.484 295.169C311.571 290.134 314.307 269.072 305.595 248.127C296.883 227.181 280.022 214.283 267.936 219.319C255.849 224.354 253.113 245.416 261.824 266.361C270.536 287.307 287.397 300.205 299.484 295.169Z" fill="#393091"/>
<path d="M298.2 261.727C297.342 268.4 292.3 270.494 286.955 266.414C281.61 262.317 277.981 253.604 278.857 246.93C279.715 240.256 284.756 238.163 290.101 242.242C295.447 246.322 299.076 255.053 298.2 261.727Z" fill="#42E8E0"/>
<path d="M286.455 287.831C271.759 276.577 261.766 252.566 264.143 234.191C265.109 226.694 267.987 221.309 272.063 218.303C264.376 219.019 258.548 225.549 257.082 236.857C254.704 255.232 264.68 279.243 279.393 290.497C288.099 297.152 296.52 297.85 302.419 293.485C297.628 293.932 292.104 292.143 286.455 287.813V287.831Z" fill="#453C9E"/>
<path d="M280.662 289.924C265.967 278.67 255.973 254.659 258.351 236.284C259.459 227.786 263.017 221.989 267.987 219.323C262.356 221.631 258.28 227.678 257.082 236.875C254.704 255.25 264.68 279.261 279.393 290.515C287.295 296.562 294.929 297.671 300.685 294.594C295.089 296.902 287.992 295.524 280.662 289.924Z" fill="#42E8E0"/>
<path d="M472.111 378.785C480.386 361.026 472.709 339.917 454.964 331.635C437.219 323.354 416.126 331.038 407.852 348.797C399.577 366.555 407.255 387.665 424.999 395.946C442.744 404.227 463.837 396.544 472.111 378.785Z" fill="url(#paint30_radial_758_663)"/>
<g style="mix-blend-mode:lighten">
<path d="M472.111 378.785C480.386 361.026 472.709 339.917 454.964 331.635C437.219 323.354 416.126 331.038 407.852 348.797C399.577 366.555 407.255 387.665 424.999 395.946C442.744 404.227 463.837 396.544 472.111 378.785Z" fill="url(#paint31_linear_758_663)"/>
</g>
<path d="M496.48 481.278C494.478 498.132 479.604 530.051 466.142 528.459C452.68 526.848 445.726 492.317 447.746 475.463C449.748 458.609 462.298 446.245 475.76 447.856C489.222 449.466 498.5 464.424 496.498 481.296L496.48 481.278Z" fill="url(#paint32_radial_758_663)"/>
<path style="mix-blend-mode:lighten" d="M496.48 481.278C494.478 498.132 479.604 530.051 466.142 528.459C452.68 526.848 445.726 492.317 447.746 475.463C449.748 458.609 462.298 446.245 475.76 447.856C489.222 449.466 498.5 464.424 496.498 481.296L496.48 481.278Z" fill="url(#paint33_linear_758_663)"/>
<defs>
<linearGradient id="paint0_linear_758_663" x1="276.702" y1="384.432" x2="187.821" y2="448.838" gradientUnits="userSpaceOnUse">
<stop stop-color="#42E8E0"/>
<stop offset="0.15" stop-color="#42E3DF"/>
<stop offset="0.33" stop-color="#44D4DE"/>
<stop offset="0.52" stop-color="#48BDDD"/>
<stop offset="0.72" stop-color="#4D9BDA"/>
<stop offset="0.93" stop-color="#5471D8"/>
<stop offset="1" stop-color="#5761D7"/>
</linearGradient>
<linearGradient id="paint1_linear_758_663" x1="329.535" y1="355.719" x2="432.031" y2="316.448" gradientUnits="userSpaceOnUse">
<stop stop-color="#42E8E0"/>
<stop offset="0.15" stop-color="#42E3DF"/>
<stop offset="0.33" stop-color="#44D4DE"/>
<stop offset="0.52" stop-color="#48BDDD"/>
<stop offset="0.72" stop-color="#4D9BDA"/>
<stop offset="0.93" stop-color="#5471D8"/>
<stop offset="1" stop-color="#5761D7"/>
</linearGradient>
<linearGradient id="paint2_linear_758_663" x1="299.432" y1="273.923" x2="392.647" y2="252.009" gradientUnits="userSpaceOnUse">
<stop stop-color="#42E8E0"/>
<stop offset="0.15" stop-color="#42E3DF"/>
<stop offset="0.33" stop-color="#44D4DE"/>
<stop offset="0.52" stop-color="#48BDDD"/>
<stop offset="0.72" stop-color="#4D9BDA"/>
<stop offset="0.93" stop-color="#5471D8"/>
<stop offset="1" stop-color="#5761D7"/>
</linearGradient>
<linearGradient id="paint3_linear_758_663" x1="281.846" y1="206.033" x2="368.243" y2="194.162" gradientUnits="userSpaceOnUse">
<stop stop-color="#42E8E0"/>
<stop offset="0.15" stop-color="#42E3DF"/>
<stop offset="0.33" stop-color="#44D4DE"/>
<stop offset="0.52" stop-color="#48BDDD"/>
<stop offset="0.72" stop-color="#4D9BDA"/>
<stop offset="0.93" stop-color="#5471D8"/>
<stop offset="1" stop-color="#5761D7"/>
</linearGradient>
<linearGradient id="paint4_linear_758_663" x1="269.56" y1="146.14" x2="341.725" y2="131.299" gradientUnits="userSpaceOnUse">
<stop stop-color="#42E8E0"/>
<stop offset="0.15" stop-color="#42E3DF"/>
<stop offset="0.33" stop-color="#44D4DE"/>
<stop offset="0.52" stop-color="#48BDDD"/>
<stop offset="0.72" stop-color="#4D9BDA"/>
<stop offset="0.93" stop-color="#5471D8"/>
<stop offset="1" stop-color="#5761D7"/>
</linearGradient>
<linearGradient id="paint5_linear_758_663" x1="254.674" y1="92.6663" x2="323.541" y2="66.472" gradientUnits="userSpaceOnUse">
<stop stop-color="#42E8E0"/>
<stop offset="0.15" stop-color="#42E3DF"/>
<stop offset="0.33" stop-color="#44D4DE"/>
<stop offset="0.52" stop-color="#48BDDD"/>
<stop offset="0.72" stop-color="#4D9BDA"/>
<stop offset="0.93" stop-color="#5471D8"/>
<stop offset="1" stop-color="#5761D7"/>
</linearGradient>
<linearGradient id="paint6_linear_758_663" x1="241.995" y1="303.726" x2="159.675" y2="359.353" gradientUnits="userSpaceOnUse">
<stop stop-color="#42E8E0"/>
<stop offset="0.15" stop-color="#42E3DF"/>
<stop offset="0.33" stop-color="#44D4DE"/>
<stop offset="0.52" stop-color="#48BDDD"/>
<stop offset="0.72" stop-color="#4D9BDA"/>
<stop offset="0.93" stop-color="#5471D8"/>
<stop offset="1" stop-color="#5761D7"/>
</linearGradient>
<linearGradient id="paint7_linear_758_663" x1="216.757" y1="231.024" x2="140.098" y2="267.543" gradientUnits="userSpaceOnUse">
<stop stop-color="#42E8E0"/>
<stop offset="0.15" stop-color="#42E3DF"/>
<stop offset="0.33" stop-color="#44D4DE"/>
<stop offset="0.52" stop-color="#48BDDD"/>
<stop offset="0.72" stop-color="#4D9BDA"/>
<stop offset="0.93" stop-color="#5471D8"/>
<stop offset="1" stop-color="#5761D7"/>
</linearGradient>
<linearGradient id="paint8_linear_758_663" x1="207.527" y1="165.534" x2="135.986" y2="187.389" gradientUnits="userSpaceOnUse">
<stop stop-color="#42E8E0"/>
<stop offset="0.15" stop-color="#42E3DF"/>
<stop offset="0.33" stop-color="#44D4DE"/>
<stop offset="0.52" stop-color="#48BDDD"/>
<stop offset="0.72" stop-color="#4D9BDA"/>
<stop offset="0.93" stop-color="#5471D8"/>
<stop offset="1" stop-color="#5761D7"/>
</linearGradient>
<linearGradient id="paint9_linear_758_663" x1="206.944" y1="104.54" x2="137.014" y2="103.552" gradientUnits="userSpaceOnUse">
<stop stop-color="#42E8E0"/>
<stop offset="0.15" stop-color="#42E3DF"/>
<stop offset="0.33" stop-color="#44D4DE"/>
<stop offset="0.52" stop-color="#48BDDD"/>
<stop offset="0.72" stop-color="#4D9BDA"/>
<stop offset="0.93" stop-color="#5471D8"/>
<stop offset="1" stop-color="#5761D7"/>
</linearGradient>
<linearGradient id="paint10_linear_758_663" x1="252.026" y1="62.0727" x2="234.238" y2="4.72711" gradientUnits="userSpaceOnUse">
<stop stop-color="#42E8E0"/>
<stop offset="0.15" stop-color="#42E3DF"/>
<stop offset="0.33" stop-color="#44D4DE"/>
<stop offset="0.52" stop-color="#48BDDD"/>
<stop offset="0.72" stop-color="#4D9BDA"/>
<stop offset="0.93" stop-color="#5471D8"/>
<stop offset="1" stop-color="#5761D7"/>
</linearGradient>
<linearGradient id="paint11_linear_758_663" x1="416.638" y1="258.324" x2="134.619" y2="198.89" gradientUnits="userSpaceOnUse">
<stop stop-color="#42E8E0"/>
<stop offset="0.15" stop-color="#42E3DF"/>
<stop offset="0.33" stop-color="#44D4DE"/>
<stop offset="0.52" stop-color="#48BDDD"/>
<stop offset="0.72" stop-color="#4D9BDA"/>
<stop offset="0.93" stop-color="#5471D8"/>
<stop offset="1" stop-color="#5761D7"/>
</linearGradient>
<radialGradient id="paint12_radial_758_663" cx="0" cy="0" r="1" gradientUnits="userSpaceOnUse" gradientTransform="translate(110.737 345.439) rotate(29.7254) scale(193.014 166.985)">
<stop stop-color="#42E8E0"/>
<stop offset="0.15" stop-color="#33AEB8"/>
<stop offset="0.31" stop-color="#267A95"/>
<stop offset="0.47" stop-color="#1B4F78"/>
<stop offset="0.62" stop-color="#122E61"/>
<stop offset="0.76" stop-color="#0C1651"/>
<stop offset="0.89" stop-color="#090747"/>
<stop offset="1" stop-color="#080344"/>
</radialGradient>
<linearGradient id="paint13_linear_758_663" x1="516.198" y1="321.888" x2="624.503" y2="402.082" gradientUnits="userSpaceOnUse">
<stop stop-color="#42E8E0"/>
<stop offset="0.15" stop-color="#42E3DF"/>
<stop offset="0.33" stop-color="#44D4DE"/>
<stop offset="0.52" stop-color="#48BDDD"/>
<stop offset="0.72" stop-color="#4D9BDA"/>
<stop offset="0.93" stop-color="#5471D8"/>
<stop offset="1" stop-color="#5761D7"/>
</linearGradient>
<linearGradient id="paint14_linear_758_663" x1="520.39" y1="324.64" x2="623.493" y2="400.983" gradientUnits="userSpaceOnUse">
<stop stop-color="#42E8E0"/>
<stop offset="0.15" stop-color="#42E3DF"/>
<stop offset="0.33" stop-color="#44D4DE"/>
<stop offset="0.52" stop-color="#48BDDD"/>
<stop offset="0.72" stop-color="#4D9BDA"/>
<stop offset="0.93" stop-color="#5471D8"/>
<stop offset="1" stop-color="#5761D7"/>
</linearGradient>
<linearGradient id="paint15_linear_758_663" x1="432.219" y1="233.812" x2="517.132" y2="275.157" gradientUnits="userSpaceOnUse">
<stop stop-color="#42E8E0"/>
<stop offset="0.15" stop-color="#42E3DF"/>
<stop offset="0.33" stop-color="#44D4DE"/>
<stop offset="0.52" stop-color="#48BDDD"/>
<stop offset="0.72" stop-color="#4D9BDA"/>
<stop offset="0.93" stop-color="#5471D8"/>
<stop offset="1" stop-color="#5761D7"/>
</linearGradient>
<linearGradient id="paint16_linear_758_663" x1="435.456" y1="235.171" x2="516.301" y2="274.536" gradientUnits="userSpaceOnUse">
<stop stop-color="#42E8E0"/>
<stop offset="0.15" stop-color="#42E3DF"/>
<stop offset="0.33" stop-color="#44D4DE"/>
<stop offset="0.52" stop-color="#48BDDD"/>
<stop offset="0.72" stop-color="#4D9BDA"/>
<stop offset="0.93" stop-color="#5471D8"/>
<stop offset="1" stop-color="#5761D7"/>
</linearGradient>
<linearGradient id="paint17_linear_758_663" x1="168.22" y1="351.609" x2="80.9835" y2="416.203" gradientUnits="userSpaceOnUse">
<stop stop-color="#42E8E0"/>
<stop offset="0.15" stop-color="#42E3DF"/>
<stop offset="0.33" stop-color="#44D4DE"/>
<stop offset="0.52" stop-color="#48BDDD"/>
<stop offset="0.72" stop-color="#4D9BDA"/>
<stop offset="0.93" stop-color="#5471D8"/>
<stop offset="1" stop-color="#5761D7"/>
</linearGradient>
<linearGradient id="paint18_linear_758_663" x1="164.86" y1="353.834" x2="81.8061" y2="415.331" gradientUnits="userSpaceOnUse">
<stop stop-color="#42E8E0"/>
<stop offset="0.15" stop-color="#42E3DF"/>
<stop offset="0.33" stop-color="#44D4DE"/>
<stop offset="0.52" stop-color="#48BDDD"/>
<stop offset="0.72" stop-color="#4D9BDA"/>
<stop offset="0.93" stop-color="#5471D8"/>
<stop offset="1" stop-color="#5761D7"/>
</linearGradient>
<radialGradient id="paint19_radial_758_663" cx="0" cy="0" r="1" gradientUnits="userSpaceOnUse" gradientTransform="translate(242.475 360.277) rotate(44.4229) scale(63.051 103.488)">
<stop stop-color="#C0BFF6"/>
<stop offset="1" stop-color="#393091"/>
</radialGradient>
<linearGradient id="paint20_linear_758_663" x1="221.087" y1="380.824" x2="165.021" y2="383.281" gradientUnits="userSpaceOnUse">
<stop stop-color="#41E6DF"/>
<stop offset="0.14" stop-color="#3FB6CA"/>
<stop offset="0.27" stop-color="#3D8CB8"/>
<stop offset="0.41" stop-color="#3B6BAA"/>
<stop offset="0.55" stop-color="#3A519F"/>
<stop offset="0.69" stop-color="#393E97"/>
<stop offset="0.84" stop-color="#393392"/>
<stop offset="1" stop-color="#393091"/>
</linearGradient>
<radialGradient id="paint21_radial_758_663" cx="0" cy="0" r="1" gradientUnits="userSpaceOnUse" gradientTransform="translate(420.156 194.253) rotate(11.2087) scale(204.597 204.748)">
<stop stop-color="#C0BFF6"/>
<stop offset="1" stop-color="#393091"/>
</radialGradient>
<linearGradient id="paint22_linear_758_663" x1="231.542" y1="337.592" x2="269.671" y2="277.788" gradientUnits="userSpaceOnUse">
<stop stop-color="#41E6DF"/>
<stop offset="0.14" stop-color="#3FB6CA"/>
<stop offset="0.27" stop-color="#3D8CB8"/>
<stop offset="0.41" stop-color="#3B6BAA"/>
<stop offset="0.55" stop-color="#3A519F"/>
<stop offset="0.69" stop-color="#393E97"/>
<stop offset="0.84" stop-color="#393392"/>
<stop offset="1" stop-color="#393091"/>
</linearGradient>
<radialGradient id="paint23_radial_758_663" cx="0" cy="0" r="1" gradientUnits="userSpaceOnUse" gradientTransform="translate(392.622 353.729) scale(157.656 214.423)">
<stop stop-color="#C0BFF6"/>
<stop offset="1" stop-color="#393091"/>
</radialGradient>
<linearGradient id="paint24_linear_758_663" x1="338.503" y1="497.202" x2="338.503" y2="282.874" gradientUnits="userSpaceOnUse">
<stop stop-color="#41E6DF"/>
<stop offset="0.14" stop-color="#3FB6CA"/>
<stop offset="0.27" stop-color="#3D8CB8"/>
<stop offset="0.41" stop-color="#3B6BAA"/>
<stop offset="0.55" stop-color="#3A519F"/>
<stop offset="0.69" stop-color="#393E97"/>
<stop offset="0.84" stop-color="#393392"/>
<stop offset="1" stop-color="#393091"/>
</linearGradient>
<radialGradient id="paint25_radial_758_663" cx="0" cy="0" r="1" gradientUnits="userSpaceOnUse" gradientTransform="translate(243.692 88.3901) scale(110.751 110.84)">
<stop stop-color="#C0BFF6"/>
<stop offset="1" stop-color="#393091"/>
</radialGradient>
<radialGradient id="paint26_radial_758_663" cx="0" cy="0" r="1" gradientUnits="userSpaceOnUse" gradientTransform="translate(397.678 219.552) scale(157.752 157.878)">
<stop stop-color="#C0BFF6"/>
<stop offset="1" stop-color="#393091"/>
</radialGradient>
<linearGradient id="paint27_linear_758_663" x1="326.436" y1="325.901" x2="352.453" y2="140.869" gradientUnits="userSpaceOnUse">
<stop stop-color="#41E6DF"/>
<stop offset="0.14" stop-color="#3FB6CA"/>
<stop offset="0.27" stop-color="#3D8CB8"/>
<stop offset="0.41" stop-color="#3B6BAA"/>
<stop offset="0.55" stop-color="#3A519F"/>
<stop offset="0.69" stop-color="#393E97"/>
<stop offset="0.84" stop-color="#393392"/>
<stop offset="1" stop-color="#393091"/>
</linearGradient>
<linearGradient id="paint28_linear_758_663" x1="381.349" y1="292.787" x2="407.719" y2="220.428" gradientUnits="userSpaceOnUse">
<stop stop-color="#41E6DF"/>
<stop offset="0.14" stop-color="#3FB6CA"/>
<stop offset="0.27" stop-color="#3D8CB8"/>
<stop offset="0.41" stop-color="#3B6BAA"/>
<stop offset="0.55" stop-color="#3A519F"/>
<stop offset="0.69" stop-color="#393E97"/>
<stop offset="0.84" stop-color="#393392"/>
<stop offset="1" stop-color="#393091"/>
</linearGradient>
<radialGradient id="paint29_radial_758_663" cx="0" cy="0" r="1" gradientUnits="userSpaceOnUse" gradientTransform="translate(396.437 217.874) scale(74.9249 74.9848)">
<stop stop-color="#C0BFF6"/>
<stop offset="1" stop-color="#393091"/>
</radialGradient>
<radialGradient id="paint30_radial_758_663" cx="0" cy="0" r="1" gradientUnits="userSpaceOnUse" gradientTransform="translate(460.97 340.668) rotate(11.2087) scale(73.9438 73.9985)">
<stop stop-color="#C0BFF6"/>
<stop offset="1" stop-color="#393091"/>
</radialGradient>
<linearGradient id="paint31_linear_758_663" x1="411.296" y1="384.667" x2="468.678" y2="342.999" gradientUnits="userSpaceOnUse">
<stop stop-color="#41E6DF"/>
<stop offset="0.14" stop-color="#3FB6CA"/>
<stop offset="0.27" stop-color="#3D8CB8"/>
<stop offset="0.41" stop-color="#3B6BAA"/>
<stop offset="0.55" stop-color="#3A519F"/>
<stop offset="0.69" stop-color="#393E97"/>
<stop offset="0.84" stop-color="#393392"/>
<stop offset="1" stop-color="#393091"/>
</linearGradient>
<radialGradient id="paint32_radial_758_663" cx="0" cy="0" r="1" gradientUnits="userSpaceOnUse" gradientTransform="translate(506.432 458.918) rotate(6.80539) scale(63.027 103.527)">
<stop stop-color="#C0BFF6"/>
<stop offset="1" stop-color="#393091"/>
</radialGradient>
<linearGradient id="paint33_linear_758_663" x1="447.009" y1="486.49" x2="495.875" y2="492.312" gradientUnits="userSpaceOnUse">
<stop stop-color="#41E6DF"/>
<stop offset="0.14" stop-color="#3FB6CA"/>
<stop offset="0.27" stop-color="#3D8CB8"/>
<stop offset="0.41" stop-color="#3B6BAA"/>
<stop offset="0.55" stop-color="#3A519F"/>
<stop offset="0.69" stop-color="#393E97"/>
<stop offset="0.84" stop-color="#393392"/>
<stop offset="1" stop-color="#393091"/>
</linearGradient>
</defs>
</svg>
